<svg width="20" height="21" viewBox="0 0 20 21" fill="none" xmlns="http://www.w3.org/2000/svg">
<mask id="mask0_255_1990" style="mask-type:luminance" maskUnits="userSpaceOnUse" x="1" y="2" width="18" height="17">
<path d="M14.1667 5.5V9.25C13.5816 9.24932 13.0029 9.37219 12.4686 9.61058C11.9342 9.84896 11.4562 10.1975 11.0659 10.6333C10.3783 11.3972 9.99851 12.3889 10 13.4167C10.0003 14.1542 10.1961 14.8784 10.5675 15.5156C10.9389 16.1528 11.4726 16.6801 12.1142 17.0438C11.005 17.3792 9.53252 17.5833 7.91669 17.5833C4.46502 17.5833 1.66669 16.6504 1.66669 15.5V5.5" stroke="white" stroke-linecap="round" stroke-linejoin="round"/>
<path d="M18.3334 13.4167C18.3334 15.718 16.4679 17.5834 14.1667 17.5834C13.4209 17.5834 12.72 17.3876 12.1142 17.0438C11.4726 16.6802 10.9389 16.1529 10.5675 15.5157C10.1961 14.8785 10.0003 14.1543 10 13.4167C10 12.3467 10.4034 11.3709 11.0659 10.6334C11.4562 10.1976 11.9342 9.84904 12.4686 9.61066C13.0029 9.37228 13.5816 9.2494 14.1667 9.25008C16.4679 9.25008 18.3334 11.1155 18.3334 13.4167ZM14.1667 5.50008C14.1667 6.6505 11.3684 7.58341 7.91669 7.58341C4.46502 7.58341 1.66669 6.6505 1.66669 5.50008C1.66669 4.34966 4.46502 3.41675 7.91669 3.41675C11.3684 3.41675 14.1667 4.34966 14.1667 5.50008Z" fill="white" stroke="white" stroke-linecap="round" stroke-linejoin="round"/>
<path d="M1.66669 12.1668C1.66669 13.3172 4.46502 14.2502 7.91669 14.2502C8.6696 14.2502 9.39169 14.206 10.06 14.1243M1.66669 8.8335C1.66669 9.98391 4.46502 10.9168 7.91669 10.9168C9.06502 10.9168 10.1413 10.8135 11.0659 10.6335" stroke="white" stroke-linecap="round" stroke-linejoin="round"/>
<path d="M15.4167 12.1667L12.9167 14.6667" stroke="black" stroke-linecap="round" stroke-linejoin="round"/>
</mask>
<g mask="url(#mask0_255_1990)">
<path d="M0 0.5H20V20.5H0V0.5Z" fill="#FFB800"/>
</g>
</svg>
