<svg width="24" height="24" viewBox="0 0 24 24" fill="none" xmlns="http://www.w3.org/2000/svg">
<g clip-path="url(#clip0_329_2245)">
<path d="M18.8333 21.625V20.0417C18.8333 19.2018 18.4997 18.3964 17.9058 17.8025C17.3119 17.2086 16.5065 16.875 15.6666 16.875H9.33329C8.49344 16.875 7.68799 17.2086 7.09412 17.8025C6.50026 18.3964 6.16663 19.2018 6.16663 20.0417V21.625M15.6666 10.5417C15.6666 12.2906 14.2489 13.7083 12.5 13.7083C10.7511 13.7083 9.33329 12.2906 9.33329 10.5417C9.33329 8.79276 10.7511 7.375 12.5 7.375C14.2489 7.375 15.6666 8.79276 15.6666 10.5417Z" stroke="#328D2A" stroke-width="2" stroke-linecap="round" stroke-linejoin="round"/>
</g>
<rect x="1" y="1" width="22" height="22" rx="11" stroke="#328D2A" stroke-width="2"/>
<defs>
<clipPath id="clip0_329_2245">
<rect x="2" y="2" width="20" height="20" rx="10" fill="white"/>
</clipPath>
</defs>
</svg>
