<svg width="20" height="21" viewBox="0 0 20 21" fill="none" xmlns="http://www.w3.org/2000/svg">
<g clip-path="url(#clip0_190_2169)">
<path fill-rule="evenodd" clip-rule="evenodd" d="M2.23832 9.21843C2.0448 9.41189 1.8913 9.64158 1.78657 9.89438C1.68183 10.1472 1.62793 10.4181 1.62793 10.6918C1.62793 10.9654 1.68183 11.2363 1.78657 11.4891C1.8913 11.7419 2.0448 11.9716 2.23832 12.1651L4.59582 14.5218C4.90503 14.8307 5.30358 15.0345 5.73504 15.1045C6.16651 15.1744 6.60904 15.1068 6.99999 14.9113C7.39093 14.7159 7.7105 14.4024 7.91344 14.0153C8.11639 13.6281 8.19244 13.187 8.13082 12.7543L8.94165 11.9434L14.0067 17.7884C14.216 18.0298 14.4729 18.2254 14.7612 18.3632C15.0495 18.501 15.363 18.5779 15.6824 18.5892C16.0017 18.6006 16.3199 18.546 16.6173 18.429C16.9146 18.3119 17.1846 18.1349 17.4106 17.909C17.6365 17.6831 17.8135 17.413 17.9305 17.1157C18.0476 16.8184 18.1021 16.5001 18.0908 16.1808C18.0795 15.8615 18.0026 15.5479 17.8648 15.2596C17.727 14.9713 17.5313 14.7145 17.29 14.5051L11.4458 9.43926L12.2558 8.62926C12.6887 8.69111 13.1301 8.61517 13.5174 8.41221C13.9048 8.20924 14.2184 7.88954 14.414 7.49839C14.6095 7.10724 14.677 6.66449 14.6069 6.23285C14.5368 5.80121 14.3326 5.40258 14.0233 5.09343L11.6667 2.73759C11.3575 2.42821 10.9587 2.224 10.527 2.15389C10.0953 2.08378 9.6524 2.15134 9.2612 2.34699C8.87 2.54263 8.5503 2.85644 8.34741 3.24394C8.14453 3.63143 8.06875 4.07296 8.13082 4.50593L4.00582 8.63009C3.68581 8.58426 3.35953 8.61364 3.05286 8.71591C2.7462 8.81818 2.46759 8.99052 2.23915 9.21926L2.23832 9.21843ZM10.7833 7.74593L7.24832 11.2809L5.47998 9.51343L9.01582 5.97759L10.7833 7.74593ZM3.41665 10.9868C3.37791 10.9481 3.34717 10.9021 3.32618 10.8516C3.3052 10.801 3.29438 10.7468 3.29434 10.6921C3.2943 10.6373 3.30504 10.5831 3.32596 10.5325C3.34687 10.4819 3.37755 10.4359 3.41623 10.3972C3.45492 10.3584 3.50086 10.3277 3.55142 10.3067C3.60199 10.2857 3.65619 10.2749 3.71094 10.2749C3.76569 10.2748 3.81991 10.2856 3.8705 10.3065C3.9211 10.3274 3.96708 10.3581 4.00582 10.3968L6.36332 12.7543C6.40311 12.7927 6.43486 12.8387 6.45669 12.8895C6.47853 12.9403 6.49003 12.995 6.49051 13.0503C6.49099 13.1057 6.48044 13.1605 6.45949 13.2117C6.43854 13.2629 6.4076 13.3095 6.36848 13.3486C6.32936 13.3877 6.28284 13.4187 6.23163 13.4396C6.18043 13.4606 6.12556 13.4711 6.07023 13.4706C6.01491 13.4701 5.96023 13.4586 5.9094 13.4368C5.85856 13.415 5.81259 13.3832 5.77415 13.3434L3.41665 10.9868ZM9.89832 4.50426C9.85852 4.46582 9.82678 4.41985 9.80494 4.36901C9.78311 4.31818 9.77161 4.2635 9.77113 4.20818C9.77065 4.15285 9.78119 4.09799 9.80214 4.04678C9.82309 3.99557 9.85403 3.94905 9.89315 3.90993C9.93228 3.87081 9.9788 3.83987 10.03 3.81892C10.0812 3.79797 10.1361 3.78743 10.1914 3.78791C10.2467 3.78839 10.3014 3.79988 10.3522 3.82172C10.4031 3.84356 10.449 3.8753 10.4875 3.91509L12.845 6.27259C12.8848 6.31103 12.9165 6.35701 12.9384 6.40784C12.9602 6.45868 12.9717 6.51335 12.9722 6.56868C12.9727 6.624 12.9621 6.67887 12.9412 6.73007C12.9202 6.78128 12.8893 6.8278 12.8502 6.86692C12.811 6.90605 12.7645 6.93699 12.7133 6.95794C12.6621 6.97889 12.6072 6.98943 12.5519 6.98895C12.4966 6.98847 12.4419 6.97697 12.3911 6.95514C12.3402 6.9333 12.2943 6.90156 12.2558 6.86176L9.89832 4.50426ZM15.2667 16.6968L10.26 10.9201L10.4217 10.7576L16.1992 15.7643C16.2657 15.8243 16.3193 15.8973 16.3568 15.9787C16.3942 16.0601 16.4147 16.1483 16.417 16.2379C16.4193 16.3275 16.4034 16.4167 16.3701 16.4999C16.3369 16.5831 16.2871 16.6588 16.2237 16.7221C16.1603 16.7855 16.0847 16.8353 16.0015 16.8686C15.9182 16.9018 15.8291 16.9178 15.7395 16.9155C15.6499 16.9132 15.5617 16.8927 15.4803 16.8552C15.3988 16.8178 15.3259 16.7641 15.2658 16.6976L15.2667 16.6968Z" fill="#FF1221"/>
</g>
<defs>
<clipPath id="clip0_190_2169">
<rect width="20" height="20" fill="white" transform="translate(0 0.5)"/>
</clipPath>
</defs>
</svg>
