<svg width="20" height="20" viewBox="0 0 20 20" fill="none" xmlns="http://www.w3.org/2000/svg">
<path d="M9.51166 8.33337L3.35916 14.515C3.19612 14.677 3.06672 14.8696 2.97842 15.0818C2.89012 15.2939 2.84467 15.5215 2.84467 15.7513C2.84467 15.9811 2.89012 16.2086 2.97842 16.4208C3.06672 16.633 3.19612 16.8256 3.35916 16.9875C3.68864 17.3153 4.13445 17.4992 4.59916 17.4992C5.06387 17.4992 5.50969 17.3153 5.83916 16.9875L12.0117 10.8334M15.1008 12.7442L17.2558 10.5892C17.4121 10.4329 17.4998 10.221 17.4998 10C17.4998 9.77907 17.4121 9.56714 17.2558 9.41087L10.9342 3.0892C10.7779 2.93298 10.566 2.84521 10.345 2.84521C10.124 2.84521 9.9121 2.93298 9.75583 3.0892L7.60083 5.2442C7.4446 5.40048 7.35684 5.6124 7.35684 5.83337C7.35684 6.05434 7.4446 6.26626 7.60083 6.42254L13.9225 12.7442C14.0788 12.9004 14.2907 12.9882 14.5117 12.9882C14.7326 12.9882 14.9446 12.9004 15.1008 12.7442Z" stroke="#FF1221" stroke-width="1.66667" stroke-linecap="round" stroke-linejoin="round"/>
</svg>
