<svg width="21" height="21" viewBox="0 0 21 21" fill="none" xmlns="http://www.w3.org/2000/svg">
<g clip-path="url(#clip0_190_2117)">
<path fill-rule="evenodd" clip-rule="evenodd" d="M2.73832 9.21843C2.5448 9.41189 2.3913 9.64158 2.28657 9.89438C2.18183 10.1472 2.12793 10.4181 2.12793 10.6918C2.12793 10.9654 2.18183 11.2363 2.28657 11.4891C2.3913 11.7419 2.5448 11.9716 2.73832 12.1651L5.09582 14.5218C5.40503 14.8307 5.80358 15.0345 6.23504 15.1045C6.66651 15.1744 7.10904 15.1068 7.49999 14.9113C7.89093 14.7159 8.2105 14.4024 8.41344 14.0153C8.61639 13.6281 8.69244 13.187 8.63082 12.7543L9.44165 11.9434L14.5067 17.7884C14.716 18.0298 14.9729 18.2254 15.2612 18.3632C15.5495 18.501 15.863 18.5779 16.1824 18.5892C16.5017 18.6006 16.8199 18.546 17.1173 18.429C17.4146 18.3119 17.6846 18.1349 17.9106 17.909C18.1365 17.6831 18.3135 17.413 18.4305 17.1157C18.5476 16.8184 18.6021 16.5001 18.5908 16.1808C18.5795 15.8615 18.5026 15.5479 18.3648 15.2596C18.227 14.9713 18.0313 14.7145 17.79 14.5051L11.9458 9.43926L12.7558 8.62926C13.1887 8.69111 13.6301 8.61517 14.0174 8.41221C14.4048 8.20924 14.7184 7.88954 14.914 7.49839C15.1095 7.10724 15.177 6.66449 15.1069 6.23285C15.0368 5.80121 14.8326 5.40258 14.5233 5.09343L12.1667 2.73759C11.8575 2.42821 11.4587 2.224 11.027 2.15389C10.5953 2.08378 10.1524 2.15134 9.7612 2.34699C9.37 2.54263 9.0503 2.85644 8.84741 3.24394C8.64453 3.63143 8.56875 4.07296 8.63082 4.50593L4.50582 8.63009C4.18581 8.58426 3.85953 8.61364 3.55286 8.71591C3.2462 8.81818 2.96759 8.99052 2.73915 9.21926L2.73832 9.21843ZM11.2833 7.74593L7.74832 11.2809L5.97998 9.51343L9.51582 5.97759L11.2833 7.74593ZM3.91665 10.9868C3.87791 10.9481 3.84717 10.9021 3.82618 10.8516C3.8052 10.801 3.79438 10.7468 3.79434 10.6921C3.7943 10.6373 3.80504 10.5831 3.82596 10.5325C3.84687 10.4819 3.87755 10.4359 3.91623 10.3972C3.95492 10.3584 4.00086 10.3277 4.05142 10.3067C4.10199 10.2857 4.15619 10.2749 4.21094 10.2749C4.26569 10.2748 4.31991 10.2856 4.3705 10.3065C4.4211 10.3274 4.46708 10.3581 4.50582 10.3968L6.86332 12.7543C6.90311 12.7927 6.93486 12.8387 6.95669 12.8895C6.97853 12.9403 6.99003 12.995 6.99051 13.0503C6.99099 13.1057 6.98044 13.1605 6.95949 13.2117C6.93854 13.2629 6.9076 13.3095 6.86848 13.3486C6.82936 13.3877 6.78284 13.4187 6.73163 13.4396C6.68043 13.4606 6.62556 13.4711 6.57023 13.4706C6.51491 13.4701 6.46023 13.4586 6.4094 13.4368C6.35856 13.415 6.31259 13.3832 6.27415 13.3434L3.91665 10.9868ZM10.3983 4.50426C10.3585 4.46582 10.3268 4.41985 10.3049 4.36901C10.2831 4.31818 10.2716 4.2635 10.2711 4.20818C10.2706 4.15285 10.2812 4.09799 10.3021 4.04678C10.3231 3.99557 10.354 3.94905 10.3932 3.90993C10.4323 3.87081 10.4788 3.83987 10.53 3.81892C10.5812 3.79797 10.6361 3.78743 10.6914 3.78791C10.7467 3.78839 10.8014 3.79988 10.8522 3.82172C10.9031 3.84356 10.949 3.8753 10.9875 3.91509L13.345 6.27259C13.3848 6.31103 13.4165 6.35701 13.4384 6.40784C13.4602 6.45868 13.4717 6.51335 13.4722 6.56868C13.4727 6.624 13.4621 6.67887 13.4412 6.73007C13.4202 6.78128 13.3893 6.8278 13.3502 6.86692C13.311 6.90605 13.2645 6.93699 13.2133 6.95794C13.1621 6.97889 13.1072 6.98943 13.0519 6.98895C12.9966 6.98847 12.9419 6.97697 12.8911 6.95514C12.8402 6.9333 12.7943 6.90156 12.7558 6.86176L10.3983 4.50426ZM15.7667 16.6968L10.76 10.9201L10.9217 10.7576L16.6992 15.7643C16.7657 15.8243 16.8193 15.8973 16.8568 15.9787C16.8942 16.0601 16.9147 16.1483 16.917 16.2379C16.9193 16.3275 16.9034 16.4167 16.8701 16.4999C16.8369 16.5831 16.7871 16.6588 16.7237 16.7221C16.6603 16.7855 16.5847 16.8353 16.5015 16.8686C16.4182 16.9018 16.3291 16.9178 16.2395 16.9155C16.1499 16.9132 16.0617 16.8927 15.9803 16.8552C15.8988 16.8178 15.8259 16.7641 15.7658 16.6976L15.7667 16.6968Z" fill="#328D2A"/>
</g>
<defs>
<clipPath id="clip0_190_2117">
<rect width="20" height="20" fill="white" transform="translate(0.5 0.5)"/>
</clipPath>
</defs>
</svg>
